<?xml version="1.0" encoding="UTF-8" standalone="no"?>
<!DOCTYPE svg PUBLIC "-//W3C//DTD SVG 1.1//EN" "http://www.w3.org/Graphics/SVG/1.1/DTD/svg11.dtd">
<svg width="100%" height="100%" viewBox="0 0 107 113" version="1.1" xmlns="http://www.w3.org/2000/svg" xmlns:xlink="http://www.w3.org/1999/xlink" xml:space="preserve" xmlns:serif="http://www.serif.com/" style="fill-rule:evenodd;clip-rule:evenodd;stroke-linejoin:round;stroke-miterlimit:2;">
    <path d="M72.76,63.695l29.149,0c0,26.973 -21.898,48.872 -48.871,48.872c-26.973,-0 -48.871,-21.899 -48.871,-48.872l29.149,0c1.857,9.192 9.987,16.121 19.722,16.121c9.735,-0 17.865,-6.929 19.722,-16.121Z" style="fill:#fff;fill-opacity:0.2;"/>
    <path d="M72.76,63.695l29.149,0c0,26.973 -21.898,48.872 -48.871,48.872c-26.973,-0 -48.871,-21.899 -48.871,-48.872l29.149,0c1.857,9.192 9.987,16.121 19.722,16.121c9.735,-0 17.865,-6.929 19.722,-16.121Zm3.155,4.167c-3.358,9.392 -12.337,16.121 -22.877,16.121c-10.54,-0 -19.519,-6.729 -22.877,-16.121c0,0 -21.636,0 -21.636,0c2.105,22.723 21.245,40.538 44.513,40.538c23.268,0 42.409,-17.815 44.513,-40.538l-21.636,0Z" style="fill:#fff;fill-opacity:0.2;"/>
    <path d="M33.316,53.038l-29.149,0c-0,-26.973 21.898,-48.871 48.871,-48.871c26.973,-0 48.871,21.898 48.871,48.871l-29.149,0c-1.857,-9.191 -9.987,-16.121 -19.722,-16.121c-9.735,0 -17.865,6.93 -19.722,16.121Z" style="fill:#fff;fill-opacity:0.2;"/>
    <path d="M33.316,57.205l-29.149,-0c-2.302,-0 -4.167,-1.866 -4.167,-4.167c-0,-29.272 23.766,-53.038 53.038,-53.038c29.273,0 53.038,23.766 53.038,53.038c0,2.301 -1.865,4.167 -4.167,4.167l-29.149,-0c-1.983,-0 -3.691,-1.398 -4.084,-3.342c-1.472,-7.287 -7.919,-12.779 -15.638,-12.779c-7.719,0 -14.166,5.492 -15.638,12.779c-0.393,1.944 -2.101,3.342 -4.084,3.342Zm-0,-4.167c1.857,-9.191 9.987,-16.121 19.722,-16.121c9.735,0 17.865,6.93 19.722,16.121l29.149,0c0,-26.973 -21.898,-48.871 -48.871,-48.871c-26.973,-0 -48.871,21.898 -48.871,48.871l29.149,0Z" style="fill:#fff;fill-opacity:0.2;"/>
    <circle cx="53.038" cy="58.367" r="9.696" style="fill:#fff;fill-opacity:0.2;"/>
    <path d="M53.038,44.504c7.651,-0 13.863,6.212 13.863,13.863c-0,7.651 -6.212,13.863 -13.863,13.863c-7.651,-0 -13.863,-6.212 -13.863,-13.863c0,-7.651 6.212,-13.863 13.863,-13.863Zm0,4.167c-5.351,-0 -9.696,4.344 -9.696,9.696c-0,5.351 4.345,9.696 9.696,9.696c5.352,-0 9.696,-4.345 9.696,-9.696c0,-5.352 -4.344,-9.696 -9.696,-9.696Z" style="fill:#fff;fill-opacity:0.2;"/>
</svg>
