<?xml version="1.0" encoding="UTF-8" standalone="no"?>
<!DOCTYPE svg PUBLIC "-//W3C//DTD SVG 1.1//EN" "http://www.w3.org/Graphics/SVG/1.1/DTD/svg11.dtd">
<svg width="100%" height="100%" viewBox="0 0 1588 292" version="1.1" xmlns="http://www.w3.org/2000/svg" xmlns:xlink="http://www.w3.org/1999/xlink" xml:space="preserve" xmlns:serif="http://www.serif.com/" style="fill-rule:evenodd;clip-rule:evenodd;stroke-linejoin:round;stroke-miterlimit:2;">
    <path d="M4.167,268.422l-0,-250.417l85.339,-7.578c1.318,-0.22 2.581,-0.329 3.789,-0.329l3.789,-0c8.787,-0 17.244,1.318 25.371,3.954c8.128,2.635 16.695,6.04 25.701,10.214c16.914,7.468 29.764,17.518 38.551,30.149c8.786,12.63 13.18,29.05 13.18,49.259c-0,27.678 -7.029,49.644 -21.088,65.899c-14.058,16.255 -33.169,25.371 -57.332,27.348l-27.678,2.307l0,80.726l-56.673,4.942l-32.949,-16.474Zm84.021,-91.27c23.504,-1.977 41.956,-10.819 55.355,-26.525c13.4,-15.706 20.099,-36.848 20.099,-63.428c0,-14.717 -2.636,-27.567 -7.908,-38.55c-5.272,-10.984 -12.795,-19.605 -22.57,-25.866c-9.775,-6.26 -21.582,-9.39 -35.421,-9.39l-3.954,-0c-1.318,-0 -2.636,0.109 -3.954,0.329l-82.373,7.249l-0,244.156l50.083,-4.284l-0,-81.055l30.643,-2.636Zm-30.643,-113.017l22.406,-1.977c0.878,-0 3.953,-0.33 4.612,-0.33c8.128,0 14.553,2.362 19.276,7.084c4.723,4.723 7.084,12.906 7.084,24.548c0,12.081 -2.965,21.088 -8.896,27.018c-5.931,5.931 -13.29,9.336 -22.076,10.215l-22.406,1.977l-0,-68.535Zm36.244,58.979c4.394,-3.075 7.798,-6.919 10.215,-11.532c2.416,-4.613 3.624,-10.654 3.624,-18.122c0,-4.613 -0.329,-8.238 -0.988,-10.874l-12.851,0.989l0,39.539Z" style="fill:#fff;fill-rule:nonzero;stroke:#fff;stroke-width:8.33px;"/>
    <path d="M357.715,285.555c-1.538,0.22 -3.13,0.33 -4.778,0.33c-1.647,-0 -3.24,-0 -4.777,-0c-11.423,-0 -21.912,-1.593 -31.467,-4.778c-9.556,-3.185 -18.836,-6.864 -27.843,-11.038c-23.504,-11.642 -40.692,-28.062 -51.566,-49.259c-10.873,-21.198 -16.31,-46.404 -16.31,-75.619c0,-17.134 2.142,-33.774 6.426,-49.919c4.283,-16.145 10.708,-30.753 19.275,-43.823c8.567,-13.07 19.276,-23.778 32.126,-32.126c12.85,-8.347 27.952,-13.289 45.305,-14.827c1.758,-0.22 3.405,-0.329 4.943,-0.329l4.613,-0c10.983,-0 20.758,1.373 29.325,4.118c8.567,2.746 17.243,5.876 26.03,9.391c15.816,6.37 28.996,15.816 39.539,28.337c10.544,12.52 18.452,27.183 23.724,43.987c5.272,16.804 7.908,34.762 7.908,53.873c-0,17.792 -2.087,34.816 -6.261,51.071c-4.173,16.255 -10.488,30.918 -18.946,43.988c-8.457,13.07 -19.11,23.724 -31.961,31.961c-12.85,8.237 -27.952,13.125 -45.305,14.662Zm-33.279,-19.769c16.914,-1.318 31.631,-5.986 44.152,-14.004c12.521,-8.017 22.845,-18.451 30.973,-31.302c8.127,-12.85 14.223,-27.238 18.287,-43.164c4.064,-15.925 6.095,-32.565 6.095,-49.918c0,-15.816 -1.812,-30.918 -5.436,-45.306c-3.625,-14.388 -9.171,-27.183 -16.64,-38.386c-7.468,-11.203 -16.859,-20.044 -28.172,-26.524c-11.312,-6.48 -24.657,-9.72 -40.033,-9.72l-4.448,-0c-1.428,-0 -3.021,0.109 -4.778,0.329c-16.914,1.538 -31.632,6.315 -44.152,14.333c-12.521,8.018 -22.955,18.452 -31.302,31.302c-8.348,12.85 -14.553,27.129 -18.617,42.835c-4.064,15.705 -6.096,32.015 -6.096,48.93c0,16.474 1.868,32.016 5.602,46.623c3.734,14.608 9.336,27.458 16.804,38.551c7.469,11.093 16.914,19.825 28.337,26.195c11.422,6.37 24.712,9.555 39.869,9.555c1.757,0 3.404,0 4.942,0c1.538,0 3.075,-0.11 4.613,-0.329Zm-0,-51.072c-0.879,0 -4.064,0.33 -4.943,0.33c-13.179,-0 -23.558,-5.712 -31.137,-17.134c-7.578,-11.423 -11.367,-30.533 -11.367,-57.332c-0,-19.111 2.086,-34.488 6.26,-46.13c4.174,-11.642 9.885,-20.264 17.134,-25.865c7.249,-5.601 15.266,-8.732 24.053,-9.391c0.879,0 4.393,-0.329 5.272,-0.329c12.96,-0 23.064,5.546 30.313,16.639c7.249,11.093 10.874,30.039 10.874,56.838c-0,28.556 -4.339,49.15 -13.015,61.781c-8.677,12.63 -19.825,19.495 -33.444,20.593Zm-0.989,-3.295c12.961,-1.098 23.559,-7.688 31.797,-19.77c8.237,-12.081 12.356,-31.851 12.356,-59.309c-0,-12.521 -0.769,-23.174 -2.307,-31.961c-1.537,-8.786 -3.844,-15.925 -6.919,-21.417c-1.098,-0.22 -2.197,-0.384 -3.295,-0.494c-1.098,-0.11 -2.197,-0.165 -3.295,-0.165c-12.96,0 -22.625,6.755 -28.996,20.264c-6.37,13.509 -9.555,33.004 -9.555,58.485c0,12.741 0.879,23.559 2.636,32.456c1.757,8.896 4.283,16.2 7.578,21.911Z" style="fill:#fff;fill-rule:nonzero;stroke:#fff;stroke-width:8.33px;"/>
    <path d="M607.802,262.491l-26.689,-44.482l-0,62.604l-56.344,4.942l-32.95,-16.474l0,-250.417l56.344,-4.942l32.95,16.475l-0,17.793l22.076,-35.915l63.592,-5.602l32.95,16.475l-74.796,117.3l81.386,133.116l-65.57,5.602l-32.949,-16.475Zm52.719,-252.064l-55.355,4.942l-60.298,98.52l0,-96.543l-49.754,4.284l0,243.826l49.754,-3.954l0,-70.182l12.521,-19.44l52.06,87.316l57.991,-5.272l-79.408,-129.821l72.489,-113.676Z" style="fill:#fff;fill-rule:nonzero;stroke:#fff;stroke-width:8.33px;"/>
    <path d="M716.535,267.763l0,-250.417l142.012,-12.52l32.95,16.474l-0,54.038l-85.669,7.578l0,19.77l35.256,-3.295l32.95,16.475l-0,53.378l-68.206,6.26l0,30.973l58.321,-5.272l32.949,16.474l0,53.708l-147.613,12.85l-32.95,-16.474Zm53.049,-54.696l-0,-57.003l68.205,-6.261l0,-46.788l-68.205,6.261l-0,-45.8l85.668,-7.579l0,-47.447l-135.422,11.862l0,244.156l141.024,-12.521l-0,-47.118l-91.27,8.238Z" style="fill:#fff;fill-rule:nonzero;stroke:#fff;stroke-width:8.33px;"/>
    <path d="M925.764,269.081l0,-250.417l68.535,-5.93c2.856,-0.22 5.602,-0.385 8.238,-0.495c2.636,-0.11 5.052,-0.164 7.249,-0.164c12.081,-0 22.9,1.427 32.455,4.283c9.555,2.856 20.044,7.029 31.467,12.521c15.376,7.029 27.897,15.651 37.562,25.865c9.665,10.215 16.804,22.735 21.417,37.563c4.613,14.827 6.92,32.894 6.92,54.202c-0,27.897 -4.668,51.401 -14.004,70.511c-9.335,19.111 -22.131,33.774 -38.386,43.988c-16.255,10.214 -35.036,16.31 -56.344,18.287l-72.159,6.26l-32.95,-16.474Zm71.83,-9.226c20.649,-1.757 38.936,-7.688 54.861,-17.793c15.926,-10.104 28.392,-24.492 37.398,-43.164c9.006,-18.671 13.509,-41.626 13.509,-68.864c0,-37.343 -7.963,-65.789 -23.888,-85.339c-15.926,-19.55 -39.485,-29.326 -70.677,-29.326c-2.196,0 -4.503,0.055 -6.919,0.165c-2.416,0.11 -4.833,0.275 -7.249,0.494l-65.57,5.602l0,243.826l68.535,-5.601Zm-18.781,-194.073l9.556,-0.659c2.416,-0.219 4.667,-0.384 6.754,-0.494c2.087,-0.11 4.229,-0.165 6.425,-0.165c11.423,0 20.813,2.087 28.172,6.261c7.359,4.173 12.85,11.312 16.475,21.417c3.624,10.104 5.437,24.273 5.437,42.505c-0,25.92 -5.382,44.866 -16.146,56.838c-10.763,11.971 -25.371,18.726 -43.823,20.264l-12.85,0.988l0,-146.955Zm36.245,136.741c11.202,-4.833 19.55,-12.686 25.041,-23.559c5.492,-10.874 8.238,-25.646 8.238,-44.317c-0,-23.285 -3.295,-39.979 -9.885,-50.084c-0.879,-0.219 -1.758,-0.329 -2.636,-0.329l-2.636,-0c-1.977,-0 -3.899,0.055 -5.766,0.165c-1.867,0.11 -3.79,0.274 -5.766,0.494l-6.59,0.329l-0,117.301Z" style="fill:#fff;fill-rule:nonzero;stroke:#fff;stroke-width:8.33px;"/>
    <path d="M1171.24,267.763l0,-250.417l142.013,-12.52l32.949,16.474l0,54.038l-85.669,7.578l0,19.77l35.256,-3.295l32.95,16.475l-0,53.378l-68.206,6.26l0,30.973l58.321,-5.272l32.95,16.474l-0,53.708l-147.614,12.85l-32.95,-16.474Zm53.049,-54.696l-0,-57.003l68.205,-6.261l0,-46.788l-68.205,6.261l-0,-45.8l85.669,-7.579l-0,-47.447l-135.423,11.862l0,244.156l141.024,-12.521l0,-47.118l-91.27,8.238Z" style="fill:#fff;fill-rule:nonzero;stroke:#fff;stroke-width:8.33px;"/>
    <path d="M1483.93,262.161l-15.157,-28.666l-21.746,47.777l-63.263,5.601l-32.95,-16.474l65.899,-137.07l-58.979,-114.335l64.251,-5.601l32.95,16.474l6.919,13.18l13.509,-31.302l63.593,-5.601l32.949,16.474l-56.343,120.266l68.205,130.151l-66.887,5.601l-32.95,-16.475Zm49.424,-252.063l-56.014,4.942l-25.7,60.627l-31.632,-58.65l-57.332,4.942l57.662,111.04l-63.922,133.446l55.355,-4.613l35.585,-77.761l38.551,74.795l59.309,-5.272l-66.228,-126.855l54.366,-116.641Z" style="fill:#fff;fill-rule:nonzero;stroke:#fff;stroke-width:8.33px;"/>
</svg>
